<svg width="200" height="200" xmlns="http://www.w3.org/2000/svg">
  <!-- Dobby's head -->
  <ellipse cx="100" cy="100" rx="70" ry="80" fill="#e0d5c1" />
  
  <!-- Dobby's ears -->
  <path d="M50,80 Q30,30 55,55 Z" fill="#e0d5c1" />
  <path d="M150,80 Q170,30 145,55 Z" fill="#e0d5c1" />
  
  <!-- Dobby's eyes -->
  <ellipse cx="75" cy="85" rx="20" ry="25" fill="white" />
  <ellipse cx="125" cy="85" rx="20" ry="25" fill="white" />
  
  <!-- Dobby's pupils -->
  <circle cx="75" cy="85" r="12" fill="#4d7c0f" />
  <circle cx="125" cy="85" r="12" fill="#4d7c0f" />
  
  <!-- Dobby's nose -->
  <ellipse cx="100" cy="115" rx="10" ry="15" fill="#d4c9b6" />
  
  <!-- Dobby's mouth -->
  <path d="M70,135 Q100,150 130,135" fill="none" stroke="#9f8e70" stroke-width="3" />
  
  <!-- Dobby's wrinkles -->
  <path d="M60,60 Q100,75 140,60" fill="none" stroke="#d4c9b6" stroke-width="2" />
  <path d="M70,70 Q100,85 130,70" fill="none" stroke="#d4c9b6" stroke-width="2" />
  <path d="M65,110 Q75,105 85,110" fill="none" stroke="#d4c9b6" stroke-width="2" />
  <path d="M115,110 Q125,105 135,110" fill="none" stroke="#d4c9b6" stroke-width="2" />
</svg> 